<global>
ampeg_release=5.0
master-volume=9.0

<group>
group_label=RR1
seq_length=2
seq_position=1

<region>
hivel=127
key=A#4
lovel=86
offset=636
sample=TubularBells_Hard_sustain_F_A#4_RR1.opus

<region>
hivel=127
key=A4
lovel=86
offset=626
sample=TubularBells_Hard_sustain_F_A4_RR1.opus

<region>
hivel=127
key=B4
lovel=86
offset=625
sample=TubularBells_Hard_sustain_F_B4_RR1.opus

<region>
hivel=127
key=C#4
lovel=86
offset=621
sample=TubularBells_Hard_sustain_F_C#4_RR1.opus

<region>
hivel=127
key=C#5
lovel=86
offset=655
sample=TubularBells_Hard_sustain_F_C#5_RR1.opus

<region>
hikey=C4
hivel=127
lokey=C4
lovel=86
offset=582
sample=TubularBells_Hard_sustain_F_C4_RR1.opus

<region>
hivel=127
key=C5
lovel=86
offset=623
sample=TubularBells_Hard_sustain_F_C5_RR1.opus

<region>
hivel=127
key=D#4
lovel=86
offset=615
sample=TubularBells_Hard_sustain_F_D#4_RR1.opus

<region>
hivel=127
key=D#5
lovel=86
offset=656
sample=TubularBells_Hard_sustain_F_D#5_RR1.opus

<region>
hivel=127
key=D4
lovel=86
offset=603
sample=TubularBells_Hard_sustain_F_D4_RR1.opus

<region>
hivel=127
key=D5
lovel=86
offset=644
sample=TubularBells_Hard_sustain_F_D5_RR1.opus

<region>
hivel=127
key=E4
lovel=86
offset=623
sample=TubularBells_Hard_sustain_F_E4_RR1.opus

<region>
hivel=127
key=E5
lovel=86
offset=642
sample=TubularBells_Hard_sustain_F_E5_RR1.opus

<region>
hivel=127
key=F#4
lovel=86
offset=634
sample=TubularBells_Hard_sustain_F_F#4_RR1.opus

<region>
hivel=127
key=F4
lovel=86
offset=605
sample=TubularBells_Hard_sustain_F_F4_RR1.opus

<region>
hivel=127
key=F5
lovel=86
offset=646
sample=TubularBells_Hard_sustain_F_F5_RR1.opus

<region>
hivel=127
key=G#4
lovel=86
offset=637
sample=TubularBells_Hard_sustain_F_G#4_RR1.opus

<region>
hivel=127
key=G4
lovel=86
offset=626
sample=TubularBells_Hard_sustain_F_G4_RR1.opus

<region>
hivel=85
key=A#4
lovel=43
offset=612
sample=TubularBells_Hard_sustain_MF_A#4_RR1.opus

<region>
hivel=85
key=A4
lovel=43
offset=620
sample=TubularBells_Hard_sustain_MF_A4_RR1.opus

<region>
hivel=85
key=B4
lovel=43
offset=10454
sample=TubularBells_Hard_sustain_MF_B4_RR1.opus

<region>
hivel=85
key=C#4
lovel=43
offset=11603
sample=TubularBells_Hard_sustain_MF_C#4_RR1.opus

<region>
hivel=85
key=C#5
lovel=43
offset=655
sample=TubularBells_Hard_sustain_MF_C#5_RR1.opus

<region>
hikey=C4
hivel=85
lokey=C4
lovel=43
offset=13457
sample=TubularBells_Hard_sustain_MF_C4_RR1.opus

<region>
hivel=85
key=C5
lovel=43
offset=14258
sample=TubularBells_Hard_sustain_MF_C5_RR1.opus

<region>
hivel=85
key=D#4
lovel=43
offset=15285
sample=TubularBells_Hard_sustain_MF_D#4_RR1.opus

<region>
hivel=85
key=D#5
lovel=43
offset=15288
sample=TubularBells_Hard_sustain_MF_D#5_RR1.opus

<region>
hivel=85
key=D4
lovel=43
offset=13009
sample=TubularBells_Hard_sustain_MF_D4_RR1.opus

<region>
hivel=85
key=D5
lovel=43
offset=13285
sample=TubularBells_Hard_sustain_MF_D5_RR1.opus

<region>
hivel=85
key=E4
lovel=43
offset=603
sample=TubularBells_Hard_sustain_MF_E4_RR1.opus

<region>
hivel=85
key=E5
lovel=43
offset=7022
sample=TubularBells_Hard_sustain_MF_E5_RR1.opus

<region>
hivel=85
key=F#4
lovel=43
offset=15281
sample=TubularBells_Hard_sustain_MF_F#4_RR1.opus

<region>
hivel=85
key=F4
lovel=43
offset=14234
sample=TubularBells_Hard_sustain_MF_F4_RR1.opus

<region>
hivel=85
key=F5
lovel=43
offset=13632
sample=TubularBells_Hard_sustain_MF_F5_RR1.opus

<region>
hivel=85
key=G#4
lovel=43
offset=10426
sample=TubularBells_Hard_sustain_MF_G#4_RR1.opus

<region>
hivel=85
key=G4
lovel=43
offset=14433
sample=TubularBells_Hard_sustain_MF_G4_RR1.opus

<region>
hivel=42
key=A#4
lovel=0
offset=14482
sample=TubularBells_Hard_sustain_P_A#2_RR1.opus

<region>
hivel=42
key=A4
lovel=0
offset=15851
sample=TubularBells_Hard_sustain_P_A2_RR1.opus

<region>
hivel=42
key=B4
lovel=0
offset=15252
sample=TubularBells_Hard_sustain_P_B2_RR1.opus

<region>
hivel=42
key=C#4
lovel=0
offset=16004
sample=TubularBells_Hard_sustain_P_C#2_RR1.opus

<region>
hikey=C4
hivel=42
lokey=C4
lovel=0
offset=15288
sample=TubularBells_Hard_sustain_P_C2_RR1.opus

<region>
hivel=42
key=C5
lovel=0
offset=15908
sample=TubularBells_Hard_sustain_P_C3_RR1.opus

<region>
hivel=42
key=D#4
lovel=0
offset=10538
sample=TubularBells_Hard_sustain_P_D#2_RR1.opus

<region>
hivel=42
key=D4
lovel=0
offset=13710
sample=TubularBells_Hard_sustain_P_D2_RR1.opus

<region>
hivel=42
key=D5
lovel=0
offset=14222
sample=TubularBells_Hard_sustain_P_D3_RR1.opus

<region>
hivel=42
key=E4
lovel=0
offset=15896
sample=TubularBells_Hard_sustain_P_E2_RR1.opus

<region>
hivel=42
key=E5
lovel=0
offset=10410
sample=TubularBells_Hard_sustain_P_E3_RR1.opus

<region>
hivel=42
key=F#4
lovel=0
offset=15736
sample=TubularBells_Hard_sustain_P_F#2_RR1.opus

<region>
hivel=42
key=F4
lovel=0
offset=15332
sample=TubularBells_Hard_sustain_P_F2_RR1.opus

<region>
hivel=42
key=F5
lovel=0
offset=15191
sample=TubularBells_Hard_sustain_P_F3_RR1.opus

<region>
hivel=42
key=G#4
lovel=0
offset=15805
sample=TubularBells_Hard_sustain_P_G#2_RR1.opus

<region>
hivel=42
key=G4
lovel=0
offset=15031
sample=TubularBells_Hard_sustain_P_G2_RR1.opus

<region>
end=447543
hivel=42
key=C#5
lovel=0
offset=16163
sample=TubularBells_Hard_legato_repeat_P_C#3_RR1.opus

<region>
end=449545
hivel=42
key=D#5
lovel=0
offset=13944
sample=TubularBells_Hard_legato_repeat_P_D#3_RR1.opus

<group>
group_label=RR2
seq_length=2
seq_position=2

<region>
hivel=127
key=A#4
lovel=86
offset=640
sample=TubularBells_Hard_sustain_F_A#4_RR2.opus

<region>
hivel=127
key=A4
lovel=86
offset=626
sample=TubularBells_Hard_sustain_F_A4_RR2.opus

<region>
hivel=127
key=B4
lovel=86
offset=624
sample=TubularBells_Hard_sustain_F_B4_RR2.opus

<region>
hivel=127
key=C#4
lovel=86
offset=623
sample=TubularBells_Hard_sustain_F_C#4_RR2.opus

<region>
hivel=127
key=C#5
lovel=86
offset=654
sample=TubularBells_Hard_sustain_F_C#5_RR2.opus

<region>
hikey=C4
hivel=127
lokey=C4
lovel=86
offset=3823
sample=TubularBells_Hard_sustain_F_C4_RR2.opus

<region>
hivel=127
key=C5
lovel=86
offset=624
sample=TubularBells_Hard_sustain_F_C5_RR2.opus

<region>
hivel=127
key=D#4
lovel=86
offset=614
sample=TubularBells_Hard_sustain_F_D#4_RR2.opus

<region>
hivel=127
key=D#5
lovel=86
offset=3482
sample=TubularBells_Hard_sustain_F_D#5_RR2.opus

<region>
hivel=127
key=D4
lovel=86
offset=605
sample=TubularBells_Hard_sustain_F_D4_RR2.opus

<region>
hivel=127
key=D5
lovel=86
offset=643
sample=TubularBells_Hard_sustain_F_D5_RR2.opus

<region>
hivel=127
key=E4
lovel=86
offset=621
sample=TubularBells_Hard_sustain_F_E4_RR2.opus

<region>
hivel=127
key=E5
lovel=86
offset=643
sample=TubularBells_Hard_sustain_F_E5_RR2.opus

<region>
hivel=127
key=F#4
lovel=86
offset=635
sample=TubularBells_Hard_sustain_F_F#4_RR2.opus

<region>
hivel=127
key=F4
lovel=86
offset=626
sample=TubularBells_Hard_sustain_F_F4_RR2.opus

<region>
hivel=127
key=F5
lovel=86
offset=645
sample=TubularBells_Hard_sustain_F_F5_RR2.opus

<region>
hivel=127
key=G#4
lovel=86
offset=615
sample=TubularBells_Hard_sustain_F_G#4_RR2.opus

<region>
hivel=127
key=G4
lovel=86
offset=600
sample=TubularBells_Hard_sustain_F_G4_RR2.opus

<region>
hivel=85
key=A#4
lovel=43
offset=15300
sample=TubularBells_Hard_sustain_MF_A#4_RR2.opus

<region>
hivel=85
key=A4
lovel=43
offset=643
sample=TubularBells_Hard_sustain_MF_A4_RR2.opus

<region>
hivel=85
key=B4
lovel=43
offset=626
sample=TubularBells_Hard_sustain_MF_B4_RR2.opus

<region>
hivel=85
key=C#4
lovel=43
offset=13621
sample=TubularBells_Hard_sustain_MF_C#4_RR2.opus

<region>
hivel=85
key=C#5
lovel=43
offset=14727
sample=TubularBells_Hard_sustain_MF_C#5_RR2.opus

<region>
hikey=C4
hivel=85
lokey=C4
lovel=43
offset=2734
sample=TubularBells_Hard_sustain_MF_C4_RR2.opus

<region>
hivel=85
key=C5
lovel=43
offset=8420
sample=TubularBells_Hard_sustain_MF_C5_RR2.opus

<region>
hivel=85
key=D#4
lovel=43
offset=15190
sample=TubularBells_Hard_sustain_MF_D#4_RR2.opus

<region>
hivel=85
key=D#5
lovel=43
offset=15255
sample=TubularBells_Hard_sustain_MF_D#5_RR2.opus

<region>
hivel=85
key=D4
lovel=43
offset=601
sample=TubularBells_Hard_sustain_MF_D4_RR2.opus

<region>
hivel=85
key=D5
lovel=43
offset=14914
sample=TubularBells_Hard_sustain_MF_D5_RR2.opus

<region>
hivel=85
key=E4
lovel=43
offset=13189
sample=TubularBells_Hard_sustain_MF_E4_RR2.opus

<region>
hivel=85
key=E5
lovel=43
offset=645
sample=TubularBells_Hard_sustain_MF_E5_RR2.opus

<region>
hivel=85
key=F#4
lovel=43
offset=15316
sample=TubularBells_Hard_sustain_MF_F#4_RR2.opus

<region>
hivel=85
key=F4
lovel=43
offset=604
sample=TubularBells_Hard_sustain_MF_F4_RR2.opus

<region>
hivel=85
key=F5
lovel=43
offset=646
sample=TubularBells_Hard_sustain_MF_F5_RR2.opus

<region>
hivel=85
key=G#4
lovel=43
offset=11680
sample=TubularBells_Hard_sustain_MF_G#4_RR2.opus

<region>
hivel=85
key=G4
lovel=43
offset=15302
sample=TubularBells_Hard_sustain_MF_G4_RR2.opus

<region>
hivel=42
key=A#4
lovel=0
offset=15205
sample=TubularBells_Hard_sustain_P_A#2_RR2.opus

<region>
hivel=42
key=A4
lovel=0
offset=16102
sample=TubularBells_Hard_sustain_P_A2_RR2.opus

<region>
hivel=42
key=B4
lovel=0
offset=15253
sample=TubularBells_Hard_sustain_P_B2_RR2.opus

<region>
hivel=42
key=C#4
lovel=0
offset=9889
sample=TubularBells_Hard_sustain_P_C#2_RR2.opus

<region>
hikey=C4
hivel=42
lokey=C4
lovel=0
offset=15443
sample=TubularBells_Hard_sustain_P_C2_RR2.opus

<region>
hivel=42
key=C5
lovel=0
offset=15250
sample=TubularBells_Hard_sustain_P_C3_RR2.opus

<region>
hivel=42
key=D#4
lovel=0
offset=15285
sample=TubularBells_Hard_sustain_P_D#2_RR2.opus

<region>
hivel=42
key=D4
lovel=0
offset=15321
sample=TubularBells_Hard_sustain_P_D2_RR2.opus

<region>
hivel=42
key=D5
lovel=0
offset=16158
sample=TubularBells_Hard_sustain_P_D3_RR2.opus

<region>
hivel=42
key=E4
lovel=0
offset=15583
sample=TubularBells_Hard_sustain_P_E2_RR2.opus

<region>
hivel=42
key=E5
lovel=0
offset=15148
sample=TubularBells_Hard_sustain_P_E3_RR2.opus

<region>
hivel=42
key=F#4
lovel=0
offset=15783
sample=TubularBells_Hard_sustain_P_F#2_RR2.opus

<region>
hivel=42
key=F4
lovel=0
offset=41946
sample=TubularBells_Hard_sustain_P_F2_RR2.opus

<region>
hivel=42
key=F5
lovel=0
offset=15138
sample=TubularBells_Hard_sustain_P_F3_RR2.opus

<region>
hivel=42
key=G#4
lovel=0
offset=15298
sample=TubularBells_Hard_sustain_P_G#2_RR2.opus

<region>
hivel=42
key=G4
lovel=0
offset=15307
sample=TubularBells_Hard_sustain_P_G2_RR2.opus

<region>
hivel=42
key=C#5
lovel=0
offset=490296
sample=TubularBells_Hard_legato_repeat_P_C#3_RR2.opus

<region>
hivel=42
key=D#5
lovel=0
offset=491458
sample=TubularBells_Hard_legato_repeat_P_D#3_RR2.opus

